<svg xmlns="http://www.w3.org/2000/svg" xmlns:xlink="http://www.w3.org/1999/xlink" viewBox="0 0 1644.6 525.25">
  <defs>
    <linearGradient id="p8fHSklNWb" x1="1050.87" y1="435.78" x2="1050.87" y2="89.74" gradientUnits="userSpaceOnUse">
      <stop offset="0" stop-color="#e69b0a"/>
      <stop offset="1" stop-color="#fdfe55"/>
    </linearGradient>
    <linearGradient id="p8fHSklNWa" x1="202.66" y1="157.66" x2="202.66" y2="36.12" gradientUnits="userSpaceOnUse">
      <stop offset="0" stop-color="#8d6d00"/>
      <stop offset="1" stop-color="#ffc700"/>
    </linearGradient>
    <linearGradient id="p8fHSklNWc" x1="95.58" y1="178.64" x2="309.73" y2="178.64" xlink:href="#p8fHSklNWa"/>
    <linearGradient id="p8fHSklNWd" x1="201.89" y1="493.43" x2="201.89" y2="408.88" xlink:href="#p8fHSklNWa"/>
    <linearGradient id="p8fHSklNWe" x1="208.37" y1="358.54" x2="208.37" y2="266.68" xlink:href="#p8fHSklNWb"/>
  </defs>
  <path d="M809.75 100.05H688.29q-3.82 6.81-47.82 142.55v.94q155.89-38.46 158.76-38.45 1.92-2.82 12.44-103.16c0-1.09-.67-1.72-1.92-1.88zm-99.46 146.3q-6.94 0-61.21 14.07-19.14 0-19.13 13.12H628V267l-1-1.88q-129.36 31-152.07 35.64-1.92 4.22-15.3 130.35a1.67 1.67 0 001.91 1.88H541q1.9 0 16.26-139.73h1q10.51 98.46 11.47 100.34 3.1 42.21 5.74 42.2h69.82l1.91-.94q4.79-12.42 63.13-187.55zm-245.8 40.32L544.83 267q5.25 0 6.69-26.26h1q1.9 21.57 2.87 23.45 69.81-16.19 69.82-17.82-7.67-74.08-8.61-74.09-6-72.21-9.57-72.21h-121.5q-1.92 5.86-22 185.69a.84.84 0 01.96.91zm227.63 147.24a1.67 1.67 0 001.91 1.87h79.38q1.92 0 23.91-209.12v-.94q-3.35 0-83.21 18.75-1.9 0-21.99 189.44zm306.76-333.86H856.37q-1.92 8.22-34.43 299.16 5.74 0 99.47-23.45 2.87 0 9.56-70.33v-.94a31.19 31.19 0 0118.17 5.63q6.47 4.69 23.91 52.51 100.67-23.43 102.34-25.32 0-1.63-2.87-10.31-12.68-27-28.69-39.39 2.63 0 15.3-7.5 51.64-34.94 51.65-99.41 0-28.37-14.35-48.76-13.62-31.89-97.55-31.89zm11.47 98.47q0 31.89-40.17 31.89h-30.6l5.74-51.58h38.25q26.79 0 26.78 18.75zm-73.64 187.56q-3.11 0-96.6 22.51-5.26 0-6.69 23.44l1.91.94H931q2.16 0 6.7-46a.84.84 0 01-.99-.89zm41.13-11.25v.93q17.2 55.11 22 60h108.08v-1.87q0-4.7-27.74-82.53zm291-285.09H1264a147.08 147.08 0 00-46.87 7.5q-69.83 31.42-69.82 95.65 0 37.05 24.87 56.27l-6.7 5.63v.94L1353 221q14.82 0 19.13-48.77a91.85 91.85 0 00-7.65-36.57q-23.21-45.91-95.66-45.92zm16.26 93.78q0 30.24-28.7 34.69-21.51 0-23.91-24.38V192q3.83-34.69 28.7-34.7 23.89 0 23.91 25.32zm48.77 66.58v-1.88q1.68 0 6.7-4.68l-1-1.88-197 35.64q-20.08 25.54-20.08 64.7v5.63a103.11 103.11 0 008.6 40.33q20.33 47.82 98.51 47.82h7.66q50 0 83.2-24.38 44-40.56 44-90V312q0-35.87-30.61-61.9zm-59.29 72.21a50 50 0 01-1.92 13.13q-12.2 32.82-33.47 32.82-26.79-6.09-26.78-33.76a40 40 0 011-10.31q8.36-40.33 33.47-40.33a30.37 30.37 0 017.65.94q20.08 8.91 20.09 30zm329.22-72.21v-1.88q1.68 0 6.7-4.68l-1-1.88-197 35.64q-20.09 25.54-20.08 64.7v5.63A103.29 103.29 0 001401 388q20.32 47.82 98.52 47.82h7.65q50 0 83.2-24.38 44-40.56 44-90V312q.02-35.87-30.59-61.9zm-59.29 72.21a50 50 0 01-1.92 13.13q-12.19 32.82-33.47 32.82-26.79-6.09-26.78-33.76a40 40 0 011-10.31q8.35-40.33 33.47-40.33a30.37 30.37 0 017.65.94q20.08 8.91 20.09 30zm-102.34-73.15l-6.7 5.63v.94L1622.91 221q14.82 0 19.13-48.77a91.85 91.85 0 00-7.65-36.57q-23.19-45.94-95.64-45.95H1534a147.08 147.08 0 00-46.87 7.5q-69.82 31.42-69.82 95.65-.03 37.08 24.84 56.3zM1502.4 192q3.82-34.69 28.7-34.7 23.89 0 23.91 25.32v.94q0 30.24-28.7 34.69-21.51 0-23.91-24.38z" fill="url(#p8fHSklNWb)"/>
  <path d="M400 222.61c-24.44 0-112.16-28.8-198.73-28.8s-176.22 28.8-198.79 28.8c-15.12 226.82 162 281 198.74 302.59 36.72-21.62 213.85-75.77 198.78-302.59z" fill="red"/>
  <path d="M385.55 232.05c-22.67 0-104-25.22-184.33-25.22s-163.4 25.22-184.34 25.22c-14 210 150.27 257.22 184.34 277.23 34.05-20.01 198.35-67.28 184.33-277.23z"/>
  <path fill="url(#p8fHSklNWa)" d="M267.77 140.29L241.73 36.12l-39.07 104.17L163.6 36.12l-27.5 107.07-52.08-99.84 10.12 114.31h217.04l10.13-114.31-53.54 96.94z"/>
  <circle cx="83.29" cy="29.61" r="15.19" transform="rotate(-22.5 83.297 29.608)" fill="#fec600"/>
  <circle cx="162.87" cy="16.59" r="15.19" transform="rotate(-31.72 162.85 16.595)" fill="#fec600"/>
  <circle cx="241" cy="16.59" r="15.19" transform="rotate(-31.72 240.982 16.597)" fill="#fec600"/>
  <circle cx="323.48" cy="29.61" r="15.19" transform="rotate(-35.78 323.503 29.598)" fill="#fec600"/>
  <path fill="url(#p8fHSklNWc)" d="M95.58 170.69h214.15v15.89H95.58z"/>
  <path d="M208.48 445l-8.48-1.84c-3.81-.86-5.77-2.87-5.77-5.46 0-3.06 2.74-6.22 8.21-6.22 7.72 0 9.38 5 10 7.94l13.56-3.54c-1.37-6.51-6.25-14.08-17-16.37v-10.63h-11.26v10.34c-10.26 1.72-18.47 9.1-18.47 19.82 0 9.1 6.75 15.61 17.69 18.19l8.69 2c3.91.86 6.06 2.68 6.06 5.45 0 3.74-3.52 6-8.4 6-8.4 0-12.31-5-12.8-10.54l-13.48 3c.68 7.85 6.93 17.81 20.71 20v10.25H209V483c11.34-2 17.78-10.24 17.78-19.05-.03-8.63-5.2-16.1-18.3-18.95z" fill="url(#p8fHSklNWd)"/>
  <path d="M48.48 320l21.34-5.23q1.4 0 1.77-7h.26a42.54 42.54 0 00.76 6.22q18.54-4.29 18.54-4.73-2-19.67-2.28-19.66-1.59-19.17-2.54-19.17H54.07q-.51 1.56-5.85 49.29c.17.03.26.11.26.28zm60.45 39.08a.45.45 0 00.51.5h21.08q.51 0 6.35-55.51v-.25q-.88 0-22.09 5-.51-.02-5.85 50.26zm31.25-88.62h-32.26q-1 1.8-12.7 37.84v.25q41.4-10.21 42.16-10.21.51-.75 3.31-27.38c0-.29-.17-.46-.51-.5zm-26.42 38.83q-1.85 0-16.26 3.74c-3.38 0-5.08 1.16-5.08 3.48h-.51v-1.74l-.25-.5q-34.35 8.22-40.39 9.46-.51 1.13-4.06 34.6a.44.44 0 00.51.5H68.8q.51 0 4.32-37.09h.25q2.79 26.14 3 26.64.83 11.19 1.52 11.2h18.6l.51-.25q1.26-3.3 16.76-49.79zm76.65-38.83h-37.85q-.51 2.18-9.15 79.41 1.53 0 26.42-6.22.76 0 2.54-18.67v-.25a8.34 8.34 0 014.83 1.49q1.71 1.25 6.35 13.94 26.73-6.23 27.18-6.72a15.5 15.5 0 00-.77-2.74q-3.36-7.15-7.62-10.45c.47 0 1.82-.67 4.07-2q13.71-9.28 13.71-26.39a21.93 21.93 0 00-3.81-12.95q-3.61-8.45-25.9-8.45zm3 26.14q0 8.46-10.66 8.46h-8.13l1.52-13.69h10.16q7.11 0 7.11 5zm-8.63 46.8v.25q4.58 14.63 5.84 15.93h28.7v-.5q0-1.24-7.36-21.91zm-10.93 3q-.82 0-25.65 6-1.4 0-1.78 6.22l.51.25h25.4q.57 0 1.78-12.2c-.11-.04-.22-.12-.22-.29zm105.48-36.09v-.5c.3 0 .89-.41 1.78-1.24l-.26-.5-52.32 9.46q-5.34 6.78-5.34 17.18v1.49a27.41 27.41 0 002.29 10.7q5.4 12.71 26.16 12.7h2q13.26 0 22.09-6.47 11.69-10.77 11.69-23.9v-2.49q.08-9.54-8.05-16.45zm-15.75 19.17a13.2 13.2 0 01-.51 3.48q-3.24 8.71-8.89 8.72-7.11-1.62-7.11-9a11.1 11.1 0 01.25-2.73q2.23-10.71 8.9-10.71a7.9 7.9 0 012 .25q5.32 2.37 5.33 8zm-1.52-61.74h-1.27a39.3 39.3 0 00-12.45 2q-18.5 8.26-18.5 25.36 0 9.84 6.6 14.94l-1.78 1.49v.25l49.79-9.21q3.94 0 5.08-12.94a24.44 24.44 0 00-2-9.71q-6.2-12.19-25.43-12.2zm4.32 24.9q0 8-7.62 9.21-5.72 0-6.35-6.48v-.49q1-9.21 7.62-9.21 6.35 0 6.35 6.72zm84.64 17.67v-.5c.3 0 .89-.41 1.78-1.24l-.26-.5-52.32 9.46q-5.34 6.78-5.34 17.18v1.49a27.41 27.41 0 002.29 10.7q5.4 12.71 26.16 12.7h2q13.26 0 22.09-6.47 11.69-10.77 11.69-23.9v-2.49q.08-9.54-8.05-16.45zm-15.75 19.17a13.2 13.2 0 01-.51 3.48q-3.24 8.71-8.89 8.72-7.11-1.62-7.11-9a11.1 11.1 0 01.25-2.73q2.24-10.71 8.9-10.71a7.9 7.9 0 012 .25q5.32 2.37 5.33 8zM308.13 310l-1.78 1.49v.25l49.79-9.21q3.94 0 5.08-12.94a24.44 24.44 0 00-2-9.71q-6.17-12.19-25.4-12.2h-1.27a39.3 39.3 0 00-12.45 2q-18.57 8.32-18.57 25.42 0 9.84 6.6 14.9zm16-15.18q1-9.21 7.62-9.21 6.35 0 6.35 6.72v.25q0 8-7.62 9.21-5.72 0-6.35-6.48z" fill="red"/>
  <path d="M117.92 308.25q-1.85 0-16.26 3.74c-3.38 0-5.08 1.16-5.08 3.48h-.51v-1.74l-.25-.5q-34.35 8.22-40.39 9.46-.51 1.13-4.06 34.6a.44.44 0 00.51.5H73q.51 0 4.32-37.09h.25q2.79 26.15 3 26.64.83 11.19 1.52 11.2h18.55l.5-.25q1.27-3.3 16.77-49.79zm26.42-38.83h-32.26q-1 1.8-12.7 37.84v.25q41.4-10.22 42.16-10.21.51-.75 3.3-27.38c0-.29-.16-.46-.5-.5zM113.09 358a.45.45 0 00.51.5h21.08q.51 0 6.35-55.51v-.25q-.89 0-22.09 5-.51.02-5.85 50.26zm-60.45-39L74 313.73q1.39 0 1.77-7H76a42.54 42.54 0 00.76 6.22q18.54-4.29 18.54-4.73-2-19.67-2.28-19.66-1.59-19.17-2.54-19.17H58.23q-.51 1.56-5.85 49.29c.17.03.26.11.26.32zm125.41 26.38q-.83 0-25.65 6-1.4 0-1.78 6.22l.51.25h25.4q.57 0 1.78-12.2c-.17-.06-.26-.14-.26-.31zm10.93-3v.25q4.58 14.63 5.84 15.93h28.7V358q0-1.25-7.36-21.91zm5.59-72.94h-37.85q-.51 2.18-9.15 79.41 1.53 0 26.42-6.22.76 0 2.54-18.67v-.25a8.34 8.34 0 014.83 1.49q1.71 1.24 6.35 13.94 26.73-6.22 27.18-6.72a15.5 15.5 0 00-.77-2.74q-3.36-7.16-7.62-10.45c.47 0 1.82-.67 4.07-2q13.71-9.29 13.71-26.39a21.93 21.93 0 00-3.81-12.95q-3.61-8.47-25.9-8.47zm3 26.14q0 8.46-10.67 8.46h-8.12l1.52-13.69h10.2q7.11 0 7.11 5zm68.65-28.88H265a39.3 39.3 0 00-12.45 2Q234 277 234 294.06q0 9.84 6.6 14.94l-1.78 1.49v.25l49.79-9.21q3.93 0 5.08-12.94a24.44 24.44 0 00-2-9.71q-6.19-12.19-25.43-12.2zm4.32 24.9q0 8-7.62 9.21-5.71 0-6.36-6.48v-.49q1-9.21 7.63-9.21 6.34 0 6.35 6.72zm12.95 17.67v-.5c.3 0 .89-.41 1.78-1.24l-.26-.5-52.32 9.46q-5.34 6.78-5.34 17.18v1.49a27.41 27.41 0 002.29 10.7q5.4 12.71 26.16 12.7h2q13.26 0 22.09-6.47 11.68-10.77 11.69-23.9v-2.49q.08-9.55-8.05-16.45zm-15.75 19.17a13.2 13.2 0 01-.51 3.48q-3.24 8.72-8.89 8.72-7.11-1.62-7.11-9a11.1 11.1 0 01.25-2.73q2.23-10.71 8.9-10.71a7.9 7.9 0 012 .25q5.32 2.37 5.33 8zm87.44-19.17v-.5c.3 0 .89-.41 1.78-1.24l-.26-.5-52.32 9.46q-5.34 6.78-5.34 17.18v1.49a27.41 27.41 0 002.29 10.7q5.4 12.71 26.16 12.7h2q13.28 0 22.1-6.47 11.68-10.77 11.69-23.9v-2.49q.07-9.55-8.06-16.45zm-15.75 19.17a13.2 13.2 0 01-.51 3.48q-3.24 8.72-8.89 8.72-7.11-1.62-7.11-9a10.63 10.63 0 01.25-2.73q2.24-10.71 8.9-10.71a7.9 7.9 0 012 .25q5.33 2.37 5.33 8zM312.29 309l-1.78 1.49v.25l49.79-9.21q3.93 0 5.08-12.94a24.44 24.44 0 00-2-9.71q-6.17-12.19-25.4-12.2h-1.27a39.3 39.3 0 00-12.45 2q-18.54 8.34-18.54 25.39-.03 9.83 6.57 14.93zm16-15.18q1-9.21 7.63-9.21 6.34 0 6.35 6.72v.25q0 8-7.62 9.21-5.72 0-6.36-6.48z" fill="url(#p8fHSklNWe)"/>
</svg>
